# Blender v2.90.0 OBJ File: 'Table_bakery.blend'
# www.blender.org
mtllib Table_bakery.mtl
o Table_bakery_Cube.009
v -3.921552 -0.349593 0.941478
v -3.921552 0.439564 0.941478
v -3.921552 -0.349593 -0.919239
v -3.921552 0.439564 -0.919239
v 3.921552 -0.349593 0.941478
v 3.921552 0.439564 0.941478
v 3.921552 -0.349593 -0.919239
v 3.921552 0.439564 -0.919239
v -3.831685 -0.461257 0.838825
v -3.831685 0.371287 0.838825
v -3.831685 -0.461257 -0.861063
v -3.831685 0.371287 -0.861063
v 3.831685 -0.461257 0.838825
v 3.831685 0.371287 0.838825
v 3.831685 -0.461257 -0.861063
v 3.831685 0.371287 -0.861063
vt 0.625000 0.000000
vt 0.375000 0.250000
vt 0.375000 0.000000
vt 0.625000 0.250000
vt 0.375000 0.500000
vt 0.625000 0.500000
vt 0.375000 0.750000
vt 0.625000 0.750000
vt 0.375000 1.000000
vt 0.125000 0.750000
vt 0.125000 0.500000
vt 0.875000 0.500000
vt 0.625000 1.000000
vt 0.875000 0.750000
vt 0.625000 0.000000
vt 0.375000 0.250000
vt 0.375000 0.000000
vt 0.625000 0.500000
vt 0.375000 0.750000
vt 0.375000 0.500000
vt 0.625000 0.250000
vt 0.625000 0.750000
vt 0.375000 1.000000
vt 0.125000 0.750000
vt 0.125000 0.500000
vt 0.875000 0.500000
vt 0.625000 1.000000
vt 0.875000 0.750000
vn -1.0000 0.0000 0.0000
vn 0.0000 0.0000 -1.0000
vn 1.0000 0.0000 0.0000
vn 0.0000 0.0000 1.0000
vn 0.0000 -1.0000 0.0000
vn 0.0000 1.0000 0.0000
usemtl Red_TableBakey
s off
f 2/1/1 3/2/1 1/3/1
f 4/4/2 7/5/2 3/2/2
f 8/6/3 5/7/3 7/5/3
f 6/8/4 1/9/4 5/7/4
f 7/5/5 1/10/5 3/11/5
f 4/12/6 6/8/6 8/6/6
f 2/1/1 4/4/1 3/2/1
f 4/4/2 8/6/2 7/5/2
f 8/6/3 6/8/3 5/7/3
f 6/8/4 2/13/4 1/9/4
f 7/5/5 5/7/5 1/10/5
f 4/12/6 2/14/6 6/8/6
usemtl Wood_TableBakery
f 10/15/1 11/16/1 9/17/1
f 16/18/3 13/19/3 15/20/3
f 12/21/2 15/20/2 11/16/2
f 14/22/4 9/23/4 13/19/4
f 15/20/5 9/24/5 11/25/5
f 12/26/6 14/22/6 16/18/6
f 10/15/1 12/21/1 11/16/1
f 16/18/3 14/22/3 13/19/3
f 12/21/2 16/18/2 15/20/2
f 14/22/4 10/27/4 9/23/4
f 15/20/5 13/19/5 9/24/5
f 12/26/6 10/28/6 14/22/6
