# Blender v2.90.0 OBJ File: 'Grave_03.blend'
# www.blender.org
mtllib Grave_03.mtl
o Grave_03_Cube.002
v -0.690003 -0.583928 -0.431696
v -0.690003 -0.441967 -0.431696
v 0.690003 -0.583928 -0.431697
v 0.690003 -0.441967 -0.431697
v -0.690003 -0.583928 0.306227
v -0.690003 -0.441967 0.306227
v 0.690003 -0.583928 0.306227
v 0.690003 -0.441967 0.306227
v 0.489330 0.357086 0.114262
v 0.489330 -0.310240 0.114262
v -0.489330 0.357086 0.114262
v -0.489330 -0.310240 0.114262
v 0.550193 0.381891 -0.239732
v 0.550193 -0.371104 -0.239732
v -0.550193 0.381891 -0.239731
v -0.550193 -0.371104 -0.239731
v -0.636386 -0.480394 -0.336673
v -0.636386 -0.349464 -0.336673
v 0.636385 -0.480394 -0.336673
v 0.636385 -0.349464 -0.336673
v -0.636385 -0.480394 0.211204
v -0.636385 -0.349464 0.211204
v 0.636386 -0.480394 0.211204
v 0.636386 -0.349464 0.211204
v 0.550193 0.381891 0.114262
v 0.550193 -0.371104 0.114262
v -0.550193 0.381891 0.114262
v -0.550193 -0.371104 0.114262
v 0.489330 0.357086 0.082904
v 0.489330 -0.310240 0.082904
v -0.489330 0.357086 0.082904
v -0.489330 -0.310240 0.082904
v -0.000000 -0.371104 -0.239732
v 0.000000 0.878534 0.114262
v -0.000000 0.878534 -0.239732
v 0.000000 -0.371104 0.114262
v 0.000000 0.782463 0.114262
v 0.000000 -0.310240 0.114262
v 0.000000 0.774553 0.082904
v 0.000000 -0.310240 0.082904
vt 0.625000 0.000000
vt 0.375000 0.250000
vt 0.375000 0.000000
vt 0.625000 0.250000
vt 0.375000 0.500000
vt 0.625000 0.500000
vt 0.375000 0.750000
vt 0.625000 0.750000
vt 0.375000 1.000000
vt 0.125000 0.750000
vt 0.125000 0.500000
vt 0.875000 0.500000
vt 0.393512 0.736172
vt 0.375000 0.625000
vt 0.388913 0.625000
vt 0.625000 0.750000
vt 0.375000 1.000000
vt 0.375000 0.750000
vt 0.610272 0.625000
vt 0.625000 0.500000
vt 0.625000 0.625000
vt 0.875000 0.625000
vt 0.625000 0.000000
vt 0.375000 0.125000
vt 0.375000 0.000000
vt 0.625000 0.250000
vt 0.375000 0.500000
vt 0.375000 0.250000
vt 0.125000 0.750000
vt 0.125000 0.625000
vt 0.600646 0.513828
vt 0.393512 0.513828
vt 0.393512 0.513828
vt 0.875000 0.500000
vt 0.600646 0.736172
vt 0.600646 0.513828
vt 0.388913 0.625000
vt 0.625000 0.000000
vt 0.375000 0.250000
vt 0.375000 0.000000
vt 0.625000 0.250000
vt 0.375000 0.500000
vt 0.625000 0.500000
vt 0.375000 0.750000
vt 0.625000 0.750000
vt 0.375000 1.000000
vt 0.125000 0.750000
vt 0.125000 0.500000
vt 0.875000 0.500000
vt 0.600646 0.736172
vt 0.393512 0.736172
vt 0.610272 0.625000
vt 0.625000 1.000000
vt 0.875000 0.750000
vt 0.625000 1.000000
vt 0.875000 0.750000
vt 0.625000 0.125000
vt 0.125000 0.500000
vt 0.625000 1.000000
vt 0.875000 0.750000
vn -0.0000 0.0000 -1.0000
vn 1.0000 0.0000 -0.0000
vn 0.0000 0.0000 1.0000
vn -1.0000 0.0000 0.0000
vn 0.0000 -1.0000 0.0000
vn 0.0000 1.0000 0.0000
vn -0.6701 0.7423 0.0000
vn 0.6701 0.7423 -0.0000
vn -0.6490 -0.7608 0.0000
vn 0.6445 -0.7414 0.1870
vn -0.6445 -0.7414 0.1870
vn 0.6490 -0.7608 0.0000
usemtl Grave_03
s off
f 2/1/1 3/2/1 1/3/1
f 4/4/2 7/5/2 3/2/2
f 8/6/3 5/7/3 7/5/3
f 6/8/4 1/9/4 5/7/4
f 7/5/5 1/10/5 3/11/5
f 4/12/6 6/8/6 8/6/6
f 12/13/3 36/14/3 38/15/3
f 27/16/4 16/17/4 28/18/4
f 37/19/3 25/20/3 34/21/3
f 35/22/7 27/16/7 34/21/7
f 15/23/1 33/24/1 16/25/1
f 13/26/2 26/27/2 14/28/2
f 36/14/5 16/29/5 33/30/5
f 9/31/4 30/32/4 10/33/4
f 33/30/5 26/27/5 36/14/5
f 33/24/1 13/26/1 14/28/1
f 34/21/8 13/34/8 35/22/8
f 37/19/3 27/16/3 11/35/3
f 29/36/3 40/37/3 30/32/3
f 18/38/1 19/39/1 17/40/1
f 20/41/2 23/42/2 19/39/2
f 24/43/3 21/44/3 23/42/3
f 22/45/4 17/46/4 21/44/4
f 23/42/5 17/47/5 19/48/5
f 20/49/6 22/45/6 24/43/6
f 10/33/3 25/20/3 9/31/3
f 12/13/3 27/16/3 28/18/3
f 40/37/3 31/50/3 32/51/3
f 36/14/3 10/33/3 38/15/3
f 9/31/9 39/52/9 29/36/9
f 11/35/10 39/52/10 37/19/10
f 10/33/6 40/37/6 38/15/6
f 12/13/2 31/50/2 11/35/2
f 38/15/6 32/51/6 12/13/6
f 2/1/1 4/4/1 3/2/1
f 4/4/2 8/6/2 7/5/2
f 8/6/3 6/8/3 5/7/3
f 6/8/4 2/53/4 1/9/4
f 7/5/5 5/7/5 1/10/5
f 4/12/6 2/54/6 6/8/6
f 12/13/3 28/18/3 36/14/3
f 27/16/4 15/55/4 16/17/4
f 37/19/3 9/31/3 25/20/3
f 35/22/7 15/56/7 27/16/7
f 15/23/1 35/57/1 33/24/1
f 13/26/2 25/20/2 26/27/2
f 36/14/5 28/18/5 16/29/5
f 9/31/4 29/36/4 30/32/4
f 33/30/5 14/58/5 26/27/5
f 33/24/1 35/57/1 13/26/1
f 34/21/8 25/20/8 13/34/8
f 37/19/3 34/21/3 27/16/3
f 29/36/3 39/52/3 40/37/3
f 18/38/1 20/41/1 19/39/1
f 20/41/2 24/43/2 23/42/2
f 24/43/3 22/45/3 21/44/3
f 22/45/4 18/59/4 17/46/4
f 23/42/5 21/44/5 17/47/5
f 20/49/6 18/60/6 22/45/6
f 10/33/3 26/27/3 25/20/3
f 12/13/3 11/35/3 27/16/3
f 40/37/3 39/52/3 31/50/3
f 36/14/3 26/27/3 10/33/3
f 9/31/11 37/19/11 39/52/11
f 11/35/12 31/50/12 39/52/12
f 10/33/6 30/32/6 40/37/6
f 12/13/2 32/51/2 31/50/2
f 38/15/6 40/37/6 32/51/6
