# Blender v2.90.0 OBJ File: 'Grave_02.blend'
# www.blender.org
mtllib Grave_02.mtl
o Grave_02_Cube.002
v 0.690003 -1.678064 0.525938
v 0.690003 -1.496113 0.525938
v -0.690003 -1.678064 0.525938
v -0.690003 -1.496113 0.525938
v 0.690003 -1.678064 -0.525938
v 0.690003 -1.496113 -0.525938
v -0.690003 -1.678064 -0.525938
v -0.690003 -1.496113 -0.525938
v 0.636385 -1.534540 0.390487
v 0.636385 -1.047802 0.390487
v -0.636385 -1.534540 0.390487
v -0.636385 -1.047802 0.390487
v 0.636385 -1.534540 -0.390487
v 0.636385 -1.047802 -0.390487
v -0.636385 -1.534540 -0.390487
v -0.636385 -1.047802 -0.390487
v 0.281409 -1.150267 0.281409
v 0.310664 -1.115655 0.281409
v 0.281409 -1.115655 0.310664
v 0.310664 1.158065 0.281409
v 0.295695 1.222416 0.262833
v 0.262833 1.222416 0.295695
v 0.281409 1.158065 0.310664
v -0.281409 -1.150267 0.281409
v -0.281409 -1.115655 0.310664
v -0.310664 -1.115655 0.281409
v -0.262833 1.222416 0.295695
v -0.295695 1.222416 0.262833
v -0.310664 1.158065 0.281409
v -0.281409 1.158065 0.310664
v 0.281409 -1.150267 -0.281409
v 0.281409 -1.115655 -0.310664
v 0.310664 -1.115655 -0.281409
v 0.262833 1.222416 -0.295695
v 0.295695 1.222416 -0.262833
v 0.310664 1.158065 -0.281409
v 0.281409 1.158065 -0.310664
v -0.281409 -1.150267 -0.281409
v -0.310664 -1.115655 -0.281409
v -0.281409 -1.115655 -0.310664
v -0.295695 1.222416 -0.262833
v -0.262833 1.222416 -0.295695
v -0.281409 1.158065 -0.310664
v -0.310664 1.158065 -0.281409
v 0.148716 1.449131 0.181579
v 0.181578 1.449131 0.148716
v 0.137355 1.478870 0.137355
v -0.148716 1.449131 0.181578
v -0.137355 1.478870 0.137355
v -0.181579 1.449131 0.148716
v -0.181578 1.449131 -0.148716
v -0.137355 1.478870 -0.137355
v -0.148716 1.449131 -0.181579
v 0.148716 1.449131 -0.181578
v 0.137355 1.478870 -0.137355
v 0.181579 1.449131 -0.148716
vt 0.136771 0.738229
vt 0.136771 0.750000
vt 0.125000 0.738229
vt 0.621307 0.000000
vt 0.625000 0.019245
vt 0.621307 0.000000
vt 0.136771 0.511771
vt 0.125000 0.511771
vt 0.136771 0.500000
vt 0.625000 0.264391
vt 0.621307 0.238229
vt 0.625000 0.235609
vt 0.363229 0.738229
vt 0.375000 0.738229
vt 0.363229 0.750000
vt 0.625000 0.764391
vt 0.621307 0.738229
vt 0.625000 0.735609
vt 0.363229 0.511771
vt 0.363229 0.500000
vt 0.375000 0.511771
vt 0.625000 0.514391
vt 0.621307 0.488229
vt 0.625000 0.485609
vt 0.625000 0.019532
vt 0.625000 0.000000
vt 0.625000 0.021949
vt 0.625000 0.230468
vt 0.625000 0.228051
vt 0.625000 0.250000
vt 0.625000 0.480468
vt 0.625000 0.478051
vt 0.625000 0.500000
vt 0.625000 0.745631
vt 0.625000 0.771949
vt 0.625000 0.763425
vt 0.378693 0.011771
vt 0.378693 0.000000
vt 0.621307 0.011771
vt 0.625000 0.014391
vt 0.378693 0.261771
vt 0.621307 0.261771
vt 0.378693 0.511771
vt 0.621307 0.511771
vt 0.378693 0.738229
vt 0.378693 0.761771
vt 0.621307 0.761771
vt 0.625000 0.985609
vt 0.625000 0.271949
vt 0.625000 0.269532
vt 0.646949 0.521949
vt 0.625000 0.730468
vt 0.625000 0.519532
vt 0.625000 0.980468
vt 0.625000 0.769532
vt 0.625000 0.000000
vt 0.625000 0.006023
vt 0.378693 0.238229
vt 0.378693 0.488229
vt 0.621307 0.988229
vt 0.646949 0.728051
vt 0.625000 0.978051
vt 0.625000 0.000000
vt 0.375000 0.250000
vt 0.375000 0.000000
vt 0.625000 0.250000
vt 0.375000 0.500000
vt 0.625000 0.500000
vt 0.375000 0.750000
vt 0.625000 0.750000
vt 0.375000 1.000000
vt 0.125000 0.750000
vt 0.125000 0.500000
vt 0.875000 0.750000
vt 0.625000 0.000000
vt 0.375000 0.250000
vt 0.375000 0.000000
vt 0.625000 0.250000
vt 0.375000 0.500000
vt 0.625000 0.500000
vt 0.375000 0.750000
vt 0.625000 0.750000
vt 0.375000 1.000000
vt 0.125000 0.750000
vt 0.125000 0.500000
vt 0.875000 0.750000
vt 0.378693 0.988229
vt 0.853051 0.521949
vt 0.625000 1.000000
vt 0.875000 0.500000
vt 0.625000 1.000000
vt 0.875000 0.500000
vt 0.853051 0.728051
vn 0.6070 -0.5130 0.6070
vn 0.6635 0.3459 0.6635
vn -0.6070 -0.5130 0.6070
vn -0.6635 0.3459 0.6635
vn 0.6070 -0.5130 -0.6070
vn 0.6635 0.3459 -0.6635
vn -0.6070 -0.5130 -0.6070
vn -0.6635 0.3459 -0.6635
vn 0.4266 0.7975 0.4266
vn -0.4266 0.7975 0.4266
vn -0.4266 0.7975 -0.4266
vn 0.4266 0.7975 -0.4266
vn 0.0000 -0.6455 0.7637
vn 0.7071 0.0000 0.7071
vn 0.0000 0.2266 0.9740
vn -0.7071 0.0000 0.7071
vn -0.7637 -0.6455 0.0000
vn -0.9740 0.2266 0.0000
vn -0.7071 0.0000 -0.7071
vn 0.0000 -0.6455 -0.7637
vn 0.0000 0.2266 -0.9740
vn 0.7071 0.0000 -0.7071
vn 0.7637 -0.6455 0.0000
vn 0.9740 0.2266 -0.0000
vn 0.0000 0.8298 0.5580
vn -0.5580 0.8298 -0.0000
vn 0.0000 0.8298 -0.5580
vn 0.5580 0.8298 0.0000
vn 0.5761 0.5799 0.5761
vn -0.5761 0.5799 0.5761
vn 0.5761 0.5799 -0.5761
vn -0.5761 0.5799 -0.5761
vn 0.0000 0.0000 1.0000
vn -1.0000 0.0000 0.0000
vn -0.0000 0.0000 -1.0000
vn 1.0000 0.0000 0.0000
vn 0.0000 -1.0000 0.0000
vn 0.0000 1.0000 0.0000
vn -0.8932 0.4496 0.0000
vn -0.0000 0.4496 -0.8932
vn 0.0000 0.4496 0.8932
vn 0.8932 0.4496 0.0000
usemtl GraveScreen_02
s off
f 17/1/1 18/2/1 19/3/1
f 20/4/2 22/5/2 23/6/2
f 24/7/3 25/8/3 26/9/3
f 28/10/4 30/11/4 27/12/4
f 31/13/5 32/14/5 33/15/5
f 35/16/6 37/17/6 34/18/6
f 38/19/7 39/20/7 40/21/7
f 42/22/8 44/23/8 41/24/8
f 45/25/9 46/26/9 47/27/9
f 48/28/10 49/29/10 50/30/10
f 51/31/11 52/32/11 53/33/11
f 54/34/12 55/35/12 56/36/12
f 17/1/13 25/8/13 24/7/13
f 20/4/14 19/37/14 18/38/14
f 27/12/15 23/39/15 22/40/15
f 26/41/16 30/11/16 29/42/16
f 24/7/17 39/20/17 38/19/17
f 41/24/18 29/42/18 28/10/18
f 40/43/19 44/23/19 43/44/19
f 38/19/20 32/45/20 31/13/20
f 34/18/21 43/44/21 42/22/21
f 33/46/22 37/17/22 36/47/22
f 31/13/23 18/2/23 17/1/23
f 21/48/24 36/47/24 35/16/24
f 47/27/25 48/28/25 45/25/25
f 49/49/26 51/31/26 50/50/26
f 52/51/27 54/52/27 53/53/27
f 55/35/28 46/54/28 56/55/28
f 46/26/29 22/40/29 21/56/29
f 28/10/30 48/28/30 50/50/30
f 54/52/31 35/16/31 34/18/31
f 42/22/32 51/31/32 53/53/32
f 20/4/2 21/57/2 22/5/2
f 28/10/4 29/42/4 30/11/4
f 35/16/6 36/47/6 37/17/6
f 42/22/8 43/44/8 44/23/8
f 17/1/13 19/3/13 25/8/13
f 20/4/14 23/39/14 19/37/14
f 27/12/15 30/11/15 23/39/15
f 26/41/16 25/58/16 30/11/16
f 24/7/17 26/9/17 39/20/17
f 41/24/18 44/23/18 29/42/18
f 40/43/19 39/59/19 44/23/19
f 38/19/20 40/43/20 32/45/20
f 34/18/21 37/17/21 43/44/21
f 33/46/22 32/45/22 37/17/22
f 31/13/23 33/15/23 18/2/23
f 21/48/24 20/60/24 36/47/24
f 47/27/25 49/29/25 48/28/25
f 49/49/26 52/32/26 51/31/26
f 52/51/27 55/61/27 54/52/27
f 55/35/28 47/62/28 46/54/28
f 46/26/29 45/25/29 22/40/29
f 28/10/30 27/12/30 48/28/30
f 54/52/31 56/55/31 35/16/31
f 42/22/32 41/24/32 51/31/32
usemtl Grave_02
f 2/63/33 3/64/33 1/65/33
f 4/66/34 7/67/34 3/64/34
f 8/68/35 5/69/35 7/67/35
f 6/70/36 1/71/36 5/69/36
f 7/67/37 1/72/37 3/73/37
f 8/68/38 2/74/38 6/70/38
f 10/75/33 11/76/33 9/77/33
f 12/78/34 15/79/34 11/76/34
f 16/80/35 13/81/35 15/79/35
f 14/82/36 9/83/36 13/81/36
f 15/79/37 9/84/37 11/85/37
f 16/80/38 10/86/38 14/82/38
f 36/47/36 18/87/36 33/46/36
f 28/10/39 51/31/39 41/24/39
f 42/22/40 54/52/40 34/18/40
f 22/40/41 48/28/41 27/12/41
f 23/39/33 25/58/33 19/37/33
f 35/16/42 46/54/42 21/48/42
f 29/42/34 39/59/34 26/41/34
f 43/44/35 32/45/35 40/43/35
f 49/88/38 55/61/38 52/51/38
f 38/19/37 17/1/37 24/7/37
f 2/63/33 4/66/33 3/64/33
f 4/66/34 8/68/34 7/67/34
f 8/68/35 6/70/35 5/69/35
f 6/70/36 2/89/36 1/71/36
f 7/67/37 5/69/37 1/72/37
f 8/68/38 4/90/38 2/74/38
f 10/75/33 12/78/33 11/76/33
f 12/78/34 16/80/34 15/79/34
f 16/80/35 14/82/35 13/81/35
f 14/82/36 10/91/36 9/83/36
f 15/79/37 13/81/37 9/84/37
f 16/80/38 12/92/38 10/86/38
f 36/47/36 20/60/36 18/87/36
f 28/10/39 50/50/39 51/31/39
f 42/22/40 53/53/40 54/52/40
f 22/40/41 45/25/41 48/28/41
f 23/39/33 30/11/33 25/58/33
f 35/16/42 56/55/42 46/54/42
f 29/42/34 44/23/34 39/59/34
f 43/44/35 37/17/35 32/45/35
f 49/88/38 47/93/38 55/61/38
f 38/19/37 31/13/37 17/1/37
