# Blender v2.90.0 OBJ File: 'Grave_01.blend'
# www.blender.org
mtllib Grave_01.mtl
o Grave_01_Cube.002
v 0.690003 -0.545683 0.429456
v 0.690003 -0.403722 0.429456
v -0.690003 -0.545683 0.429456
v -0.690003 -0.403722 0.429456
v 0.690003 -0.545683 -0.308468
v 0.690003 -0.403722 -0.308468
v -0.690003 -0.545683 -0.308468
v -0.690003 -0.403722 -0.308468
v -0.489330 0.395331 -0.116503
v -0.489330 -0.271995 -0.116503
v 0.489330 0.395331 -0.116503
v 0.489330 -0.271995 -0.116503
v -0.550193 0.420136 0.237491
v -0.550193 -0.332859 0.237491
v 0.550193 0.420136 0.237491
v 0.550193 -0.332859 0.237491
v -0.330116 -0.332859 0.237491
v -0.110039 -0.332859 0.237491
v 0.110039 -0.332859 0.237491
v 0.330116 -0.332859 0.237491
v -0.293316 0.595874 -0.116503
v -0.095040 0.699915 -0.116503
v 0.095040 0.699915 -0.116503
v 0.293316 0.595874 -0.116503
v 0.330116 0.645298 0.237491
v 0.110039 0.760779 0.237491
v -0.110039 0.760779 0.237491
v -0.330116 0.645298 0.237491
v 0.330116 -0.271995 -0.116503
v 0.110039 -0.271995 -0.116503
v -0.110039 -0.271995 -0.116503
v -0.330116 -0.271995 -0.116503
v 0.636385 -0.442149 0.334433
v 0.636385 -0.311219 0.334433
v -0.636385 -0.442149 0.334433
v -0.636385 -0.311219 0.334433
v 0.636385 -0.442149 -0.213444
v 0.636385 -0.311219 -0.213444
v -0.636385 -0.442149 -0.213444
v -0.636385 -0.311219 -0.213444
v -0.550193 0.420136 -0.116503
v -0.550193 -0.332859 -0.116503
v 0.550193 0.420136 -0.116503
v 0.550193 -0.332859 -0.116503
v 0.330116 0.645298 -0.116503
v -0.330116 -0.332859 -0.116503
v -0.330116 0.645298 -0.116503
v -0.110039 0.760779 -0.116503
v 0.110039 0.760779 -0.116503
v 0.330116 -0.332859 -0.116503
v 0.110039 -0.332859 -0.116503
v -0.110039 -0.332859 -0.116503
v -0.293316 0.595874 -0.085144
v -0.330116 -0.271995 -0.085144
v -0.095040 0.699915 -0.085144
v -0.110039 -0.271995 -0.085144
v 0.095040 0.699915 -0.085144
v 0.110039 -0.271995 -0.085144
v 0.293316 0.595874 -0.085144
v 0.330116 -0.271995 -0.085144
v -0.489330 0.395331 -0.085144
v -0.489330 -0.271995 -0.085144
v 0.489330 0.395331 -0.085144
v 0.489330 -0.271995 -0.085144
vt 0.625000 0.000000
vt 0.375000 0.250000
vt 0.375000 0.000000
vt 0.625000 0.250000
vt 0.375000 0.500000
vt 0.625000 0.500000
vt 0.375000 0.750000
vt 0.625000 0.750000
vt 0.375000 1.000000
vt 0.125000 0.750000
vt 0.125000 0.500000
vt 0.875000 0.500000
vt 0.875000 0.700000
vt 0.625000 0.750000
vt 0.625000 0.700000
vt 0.375000 1.000000
vt 0.375000 0.750000
vt 0.375000 0.200000
vt 0.625000 0.250000
vt 0.375000 0.250000
vt 0.375000 0.700000
vt 0.125000 0.750000
vt 0.125000 0.700000
vt 0.608196 0.558361
vt 0.600646 0.513828
vt 0.600646 0.513828
vt 0.375000 0.500000
vt 0.608197 0.691639
vt 0.609456 0.646592
vt 0.609456 0.646592
vt 0.393512 0.513828
vt 0.393512 0.513828
vt 0.388913 0.650000
vt 0.388913 0.600000
vt 0.388913 0.650000
vt 0.390556 0.550000
vt 0.390556 0.550000
vt 0.125000 0.550000
vt 0.125000 0.500000
vt 0.375000 0.550000
vt 0.125000 0.600000
vt 0.375000 0.600000
vt 0.125000 0.650000
vt 0.375000 0.650000
vt 0.625000 0.000000
vt 0.375000 0.050000
vt 0.375000 0.000000
vt 0.625000 0.050000
vt 0.375000 0.100000
vt 0.625000 0.100000
vt 0.375000 0.150000
vt 0.625000 0.200000
vt 0.875000 0.500000
vt 0.625000 0.550000
vt 0.625000 0.500000
vt 0.875000 0.550000
vt 0.625000 0.600000
vt 0.875000 0.600000
vt 0.625000 0.650000
vt 0.875000 0.650000
vt 0.625000 0.000000
vt 0.375000 0.250000
vt 0.375000 0.000000
vt 0.625000 0.250000
vt 0.375000 0.500000
vt 0.625000 0.500000
vt 0.375000 0.750000
vt 0.625000 0.750000
vt 0.375000 1.000000
vt 0.125000 0.750000
vt 0.125000 0.500000
vt 0.875000 0.500000
vt 0.393512 0.736172
vt 0.600646 0.736172
vt 0.611087 0.603408
vt 0.390556 0.700000
vt 0.388913 0.600000
vt 0.390556 0.700000
vt 0.600646 0.736172
vt 0.393512 0.736172
vt 0.608196 0.558361
vt 0.611087 0.603408
vt 0.608197 0.691639
vt 0.625000 1.000000
vt 0.875000 0.750000
vt 0.875000 0.750000
vt 0.625000 1.000000
vt 0.625000 0.150000
vt 0.625000 1.000000
vt 0.875000 0.750000
vn 0.0000 0.0000 1.0000
vn -1.0000 0.0000 0.0000
vn -0.0000 0.0000 -1.0000
vn 1.0000 0.0000 0.0000
vn 0.0000 -1.0000 0.0000
vn 0.0000 1.0000 0.0000
vn 0.7151 0.6990 0.0000
vn 0.7151 -0.6990 0.0000
vn -0.4646 -0.8855 0.0000
vn -0.7151 0.6990 0.0000
vn -0.4646 0.8855 0.0000
vn 0.4646 0.8855 0.0000
vn 0.4646 -0.8855 0.0000
vn -0.7151 -0.6990 0.0000
usemtl Grave_01
s off
f 2/1/1 3/2/1 1/3/1
f 4/4/2 7/5/2 3/2/2
f 8/6/3 5/7/3 7/5/3
f 6/8/4 1/9/4 5/7/4
f 7/5/5 1/10/5 3/11/5
f 4/12/6 6/8/6 8/6/6
f 25/13/7 43/14/7 45/15/7
f 43/14/4 16/16/4 44/17/4
f 17/18/1 13/19/1 14/20/1
f 50/21/5 16/22/5 20/23/5
f 21/24/8 61/25/8 9/26/8
f 13/19/2 42/27/2 14/20/2
f 24/28/9 57/29/9 23/30/9
f 9/26/4 62/31/4 10/32/4
f 30/33/6 56/34/6 58/35/6
f 10/32/6 54/36/6 32/37/6
f 42/27/5 17/38/5 14/39/5
f 46/40/5 18/41/5 17/38/5
f 52/42/5 19/43/5 18/41/5
f 51/44/5 20/23/5 19/43/5
f 15/45/1 20/46/1 16/47/1
f 25/48/1 19/49/1 20/46/1
f 26/50/1 18/51/1 19/49/1
f 18/51/1 28/52/1 17/18/1
f 13/53/10 47/54/10 41/55/10
f 28/56/11 48/57/11 47/54/11
f 27/58/6 49/59/6 48/57/6
f 26/60/12 45/15/12 49/59/12
f 34/61/1 35/62/1 33/63/1
f 36/64/2 39/65/2 35/62/2
f 40/66/3 37/67/3 39/65/3
f 38/68/4 33/69/4 37/67/4
f 39/65/5 33/70/5 35/71/5
f 36/72/6 38/68/6 40/66/6
f 10/32/3 41/55/3 9/26/3
f 12/73/3 43/14/3 44/17/3
f 11/74/3 45/15/3 43/14/3
f 10/32/3 46/40/3 42/27/3
f 9/26/3 47/54/3 21/24/3
f 22/75/3 47/54/3 48/57/3
f 22/75/3 49/59/3 23/30/3
f 23/30/3 45/15/3 24/28/3
f 12/73/3 50/21/3 29/76/3
f 29/76/3 51/44/3 30/33/3
f 30/33/3 52/42/3 31/77/3
f 31/77/3 46/40/3 32/37/3
f 60/78/3 63/79/3 64/80/3
f 61/25/3 54/36/3 62/31/3
f 53/81/3 56/34/3 54/36/3
f 55/82/3 58/35/3 56/34/3
f 58/35/3 59/83/3 60/78/3
f 31/77/6 54/36/6 56/34/6
f 12/73/2 63/79/2 11/74/2
f 29/76/6 64/80/6 12/73/6
f 22/75/13 53/81/13 21/24/13
f 11/74/14 59/83/14 24/28/14
f 29/76/6 58/35/6 60/78/6
f 23/30/5 55/82/5 22/75/5
f 2/1/1 4/4/1 3/2/1
f 4/4/2 8/6/2 7/5/2
f 8/6/3 6/8/3 5/7/3
f 6/8/4 2/84/4 1/9/4
f 7/5/5 5/7/5 1/10/5
f 4/12/6 2/85/6 6/8/6
f 25/13/7 15/86/7 43/14/7
f 43/14/4 15/87/4 16/16/4
f 17/18/1 28/52/1 13/19/1
f 50/21/5 44/17/5 16/22/5
f 21/24/8 53/81/8 61/25/8
f 13/19/2 41/55/2 42/27/2
f 24/28/9 59/83/9 57/29/9
f 9/26/4 61/25/4 62/31/4
f 30/33/6 31/77/6 56/34/6
f 10/32/6 62/31/6 54/36/6
f 42/27/5 46/40/5 17/38/5
f 46/40/5 52/42/5 18/41/5
f 52/42/5 51/44/5 19/43/5
f 51/44/5 50/21/5 20/23/5
f 15/45/1 25/48/1 20/46/1
f 25/48/1 26/50/1 19/49/1
f 26/50/1 27/88/1 18/51/1
f 18/51/1 27/88/1 28/52/1
f 13/53/10 28/56/10 47/54/10
f 28/56/11 27/58/11 48/57/11
f 27/58/6 26/60/6 49/59/6
f 26/60/12 25/13/12 45/15/12
f 34/61/1 36/64/1 35/62/1
f 36/64/2 40/66/2 39/65/2
f 40/66/3 38/68/3 37/67/3
f 38/68/4 34/89/4 33/69/4
f 39/65/5 37/67/5 33/70/5
f 36/72/6 34/90/6 38/68/6
f 10/32/3 42/27/3 41/55/3
f 12/73/3 11/74/3 43/14/3
f 11/74/3 24/28/3 45/15/3
f 10/32/3 32/37/3 46/40/3
f 9/26/3 41/55/3 47/54/3
f 22/75/3 21/24/3 47/54/3
f 22/75/3 48/57/3 49/59/3
f 23/30/3 49/59/3 45/15/3
f 12/73/3 44/17/3 50/21/3
f 29/76/3 50/21/3 51/44/3
f 30/33/3 51/44/3 52/42/3
f 31/77/3 52/42/3 46/40/3
f 60/78/3 59/83/3 63/79/3
f 61/25/3 53/81/3 54/36/3
f 53/81/3 55/82/3 56/34/3
f 55/82/3 57/29/3 58/35/3
f 58/35/3 57/29/3 59/83/3
f 31/77/6 32/37/6 54/36/6
f 12/73/2 64/80/2 63/79/2
f 29/76/6 60/78/6 64/80/6
f 22/75/13 55/82/13 53/81/13
f 11/74/14 63/79/14 59/83/14
f 29/76/6 30/33/6 58/35/6
f 23/30/5 57/29/5 55/82/5
