# Blender v2.90.0 OBJ File: 'anvil.blend'
# www.blender.org
mtllib anvil.mtl
o Anvil_Cube.002
v -0.958700 0.265565 -0.022917
v -0.970045 0.286914 -0.018655
v -0.956686 0.281031 -0.039314
v -0.951522 0.322657 -0.039773
v -0.965481 0.322606 -0.018655
v -0.948797 0.337481 -0.023453
v 0.015723 0.038128 -0.233230
v 0.030470 0.035186 -0.219049
v 0.015905 0.023045 -0.217604
v 0.015905 0.463629 -0.217604
v 0.030470 0.451488 -0.219049
v 0.015723 0.448545 -0.233230
v -0.956686 0.281031 0.039314
v -0.970045 0.286914 0.018655
v -0.958700 0.265565 0.022917
v -0.948797 0.337481 0.023453
v -0.965481 0.322606 0.018655
v -0.951522 0.322657 0.039773
v 0.015905 0.023045 0.217604
v 0.030470 0.035186 0.219049
v 0.015723 0.038128 0.233230
v 0.015905 0.463629 0.217604
v 0.015723 0.448545 0.233230
v 0.030470 0.451488 0.219049
v -0.456417 0.124531 -0.188381
v -0.456599 0.109514 -0.172721
v -0.485835 0.114176 -0.167711
v -0.485636 0.129086 -0.183691
v -0.456417 0.362142 -0.188381
v -0.485636 0.357588 -0.183691
v -0.485835 0.372498 -0.167711
v -0.456599 0.377160 -0.172721
v -0.456417 0.124531 0.188381
v -0.485636 0.129086 0.183691
v -0.485835 0.114176 0.167711
v -0.456599 0.109514 0.172721
v -0.456417 0.362142 0.188381
v -0.456599 0.377160 0.172721
v -0.485835 0.372498 0.167711
v -0.485636 0.357588 0.183691
v -0.735203 0.152972 -0.108515
v -0.735894 0.169701 -0.124635
v -0.707507 0.159277 -0.133254
v -0.707309 0.144313 -0.117365
v -0.735837 0.325380 0.124474
v -0.707507 0.327396 0.133254
v -0.707309 0.342360 0.117365
v -0.736785 0.340176 0.107449
v -0.707309 0.342360 -0.117365
v -0.707507 0.327396 -0.133254
v -0.735837 0.325380 -0.124474
v -0.736785 0.340176 -0.107449
v -0.707507 0.159277 0.133254
v -0.735894 0.169701 0.124635
v -0.735203 0.152972 0.108516
v -0.707309 0.144313 0.117365
v -0.217437 -0.404966 -0.468201
v -0.228874 -0.381053 -0.443372
v -0.192608 -0.381053 -0.479638
v 0.002613 -0.093931 -0.211884
v 0.007978 -0.042634 -0.200684
v 0.040779 -0.039443 -0.231823
v 0.038880 -0.093931 -0.248150
v 0.718965 -0.404966 -0.468201
v 0.694136 -0.381053 -0.479638
v 0.730402 -0.381053 -0.443372
v 0.460748 -0.039443 -0.231823
v 0.493550 -0.042634 -0.200684
v 0.498914 -0.093931 -0.211884
v 0.462648 -0.093931 -0.248150
v -0.217437 -0.404966 0.468201
v -0.192608 -0.381053 0.479638
v -0.228874 -0.381053 0.443372
v 0.040779 -0.039443 0.231823
v 0.007978 -0.042634 0.200684
v 0.002613 -0.093931 0.211884
v 0.038880 -0.093931 0.248150
v 0.718965 -0.404966 0.468201
v 0.730402 -0.381053 0.443372
v 0.694136 -0.381053 0.479638
v 0.493550 -0.042634 0.200684
v 0.460748 -0.039443 0.231823
v 0.462648 -0.093931 0.248150
v 0.498914 -0.093931 0.211884
v -0.114439 0.252899 -0.268585
v -0.077723 0.193758 -0.254338
v -0.113768 0.196949 -0.223816
v -0.149567 0.245890 -0.233936
v 0.624212 0.252899 -0.268585
v 0.658543 0.233454 -0.229968
v 0.615295 0.196949 -0.223816
v 0.579251 0.193758 -0.254338
v 0.658543 0.233454 0.229968
v 0.624212 0.252899 0.268585
v 0.579251 0.193758 0.254338
v 0.615295 0.196949 0.223816
v -0.114439 0.252899 0.268585
v -0.149567 0.245890 0.233936
v -0.113768 0.196949 0.223816
v -0.077723 0.193758 0.254338
v -0.341438 0.502184 -0.421044
v -0.373565 0.500538 -0.382502
v -0.347367 0.530749 -0.398770
v 1.326735 0.502184 -0.421044
v 1.368923 0.530749 -0.398770
v 1.378119 0.509193 -0.387665
v 1.378119 0.509193 0.387665
v 1.368923 0.530749 0.398770
v 1.326735 0.502184 0.421044
v -0.341438 0.502184 0.421044
v -0.347367 0.530749 0.398770
v -0.373565 0.500538 0.382502
v 1.236058 0.451691 0.359183
v 1.044114 0.388947 0.322378
v 1.199055 0.408392 0.299139
v 1.289760 0.450985 0.326189
v -0.233358 0.388947 0.322378
v -0.302121 0.451691 0.359183
v -0.335887 0.453249 0.325873
v -0.281333 0.395956 0.293272
v -0.302121 0.451691 -0.359183
v -0.233358 0.388947 -0.322378
v -0.281333 0.395956 -0.293272
v -0.335887 0.453249 -0.325873
v 1.044114 0.388947 -0.322378
v 1.236058 0.451691 -0.359183
v 1.289760 0.450985 -0.326189
v 1.199055 0.408392 -0.299139
v 0.906273 -0.468331 0.585232
v 0.826964 -0.399407 0.576200
v 0.835996 -0.468331 0.655509
v 1.008843 -1.691015 0.758079
v 1.068741 -1.622091 0.747700
v 0.998464 -1.622091 0.817977
v -0.334468 -0.468331 0.655509
v -0.325436 -0.399407 0.576200
v -0.404745 -0.468331 0.585232
v -0.496936 -1.622091 0.817977
v -0.567213 -1.622091 0.747700
v -0.507315 -1.691015 0.758079
v 0.906273 -0.468331 -0.585232
v 0.835996 -0.468331 -0.655509
v 0.826964 -0.399407 -0.576200
v 0.998464 -1.622091 -0.817977
v 1.068741 -1.622091 -0.747700
v 1.008843 -1.691015 -0.758079
v -0.334468 -0.468331 -0.655509
v -0.404745 -0.468331 -0.585232
v -0.325436 -0.399407 -0.576200
v -0.507315 -1.691015 -0.758079
v -0.567213 -1.622091 -0.747700
v -0.496936 -1.622091 -0.817977
vt 0.866386 0.503629
vt 0.635049 0.621371
vt 0.633614 0.503629
vt 0.366386 0.503629
vt 0.135049 0.621371
vt 0.133614 0.503629
vt 0.616004 0.503675
vt 0.388055 0.621325
vt 0.383996 0.503675
vt 0.142649 0.690807
vt 0.327672 0.746693
vt 0.172328 0.746693
vt 0.856955 0.691330
vt 0.671403 0.746170
vt 0.643045 0.691330
vt 0.616699 0.258301
vt 0.383301 0.491699
vt 0.383301 0.258301
vt 0.603198 0.691053
vt 0.424694 0.746573
vt 0.397583 0.690996
vt 0.388055 0.128675
vt 0.616004 0.246325
vt 0.383996 0.246325
vt 0.363701 0.628656
vt 0.138978 0.683844
vt 0.136299 0.628656
vt 0.636299 0.628656
vt 0.861022 0.683844
vt 0.638978 0.683844
vt 0.568569 0.806890
vt 0.431431 0.943110
vt 0.431431 0.806890
vt 0.610074 0.628606
vt 0.393077 0.683894
vt 0.389926 0.628606
vt 0.606923 0.066106
vt 0.389926 0.121394
vt 0.393077 0.066106
vt 0.124857 0.504339
vt 0.133301 0.500000
vt 0.134071 0.500000
vt 0.625152 0.246039
vt 0.616699 0.250000
vt 0.625000 0.245666
vt 0.366699 0.500000
vt 0.375000 0.504334
vt 0.623506 0.490929
vt 0.615049 0.500000
vt 0.616699 0.500000
vt 0.625000 0.259071
vt 0.616699 0.491699
vt 0.864951 0.621371
vt 0.863701 0.628656
vt 0.364951 0.621371
vt 0.611945 0.621325
vt 0.610074 0.121394
vt 0.611945 0.128675
vt 0.397583 0.059004
vt 0.603198 0.058947
vt 0.361022 0.683844
vt 0.357351 0.690807
vt 0.606923 0.683894
vt 0.424694 0.003427
vt 0.607151 0.764741
vt 0.392849 0.990116
vt 0.392849 0.759884
vt 0.625000 0.266337
vt 0.625000 0.484637
vt 0.625000 0.483663
vt 0.625000 0.515423
vt 0.625000 0.737782
vt 0.625000 0.734577
vt 0.625000 0.234577
vt 0.625000 0.012218
vt 0.625000 0.237782
vt 0.607151 0.014741
vt 0.392849 0.240116
vt 0.392849 0.009884
vt 0.607151 0.264741
vt 0.392849 0.490116
vt 0.392849 0.259884
vt 0.607151 0.514741
vt 0.392849 0.740116
vt 0.392849 0.509884
vt 0.625000 0.232148
vt 0.625000 0.007286
vt 0.625000 0.234445
vt 0.625000 0.766337
vt 0.625000 0.984637
vt 0.625000 0.983663
vt 0.625000 0.761632
vt 0.625000 0.988783
vt 0.625000 0.988368
vt 0.864854 0.504491
vt 0.635146 0.745509
vt 0.635146 0.504491
vt 0.625000 0.261315
vt 0.625000 0.489151
vt 0.625000 0.488685
vt 0.625000 0.507433
vt 0.625000 0.745327
vt 0.625000 0.744942
vt 0.625000 0.517852
vt 0.625000 0.742714
vt 0.625000 0.740627
vt 0.625000 0.264257
vt 0.625000 0.487928
vt 0.625000 0.485743
vt 0.625000 0.764161
vt 0.625000 0.987437
vt 0.625000 0.985839
vt 0.625000 0.242567
vt 0.625000 0.004673
vt 0.625000 0.243765
vt 0.625000 0.015423
vt 0.607152 0.735259
vt 0.607152 0.985259
vt 0.625000 0.009373
vt 0.625000 0.265363
vt 0.625000 0.512218
vt 0.625000 0.765363
vt 0.625000 0.262072
vt 0.625000 0.762563
vt 0.625000 0.005364
vt 0.625000 0.515554
vt 0.367304 0.507696
vt 0.132696 0.742304
vt 0.132696 0.507696
vt 0.364488 0.510512
vt 0.135512 0.739488
vt 0.135512 0.510512
vt 0.611659 0.012846
vt 0.388341 0.238924
vt 0.388341 0.011076
vt 0.611659 0.762846
vt 0.388341 0.988924
vt 0.388341 0.761077
vt 0.861528 0.513472
vt 0.638472 0.736528
vt 0.638472 0.513472
vt 0.611659 0.512846
vt 0.388341 0.738924
vt 0.388341 0.511076
vt 0.611659 0.262846
vt 0.388341 0.488924
vt 0.388341 0.261076
vt 0.828596 0.746170
vt 0.575954 0.746475
vt 0.568569 0.943110
vt 0.625000 0.490929
vt 0.575954 0.003526
vt 0.607152 0.235259
vt 0.607152 0.485259
vt 0.625000 0.761217
vt 0.864854 0.745509
vt 0.625000 0.260849
vt 0.625000 0.506235
vt 0.367304 0.742304
vt 0.364488 0.739488
vt 0.611659 0.237154
vt 0.611659 0.987154
vt 0.861528 0.736528
vt 0.611659 0.737154
vt 0.611659 0.487154
vt 0.181890 0.750000
vt 0.125000 0.747735
vt 0.568569 0.000000
vt 0.625000 0.002480
vt 0.379371 0.747845
vt 0.318110 0.750000
vt 0.333671 0.750000
vt 0.625693 0.747495
vt 0.568569 0.750000
vt 0.625000 0.746857
vt 0.125000 0.621692
vt 0.127199 0.625000
vt 0.124842 0.621989
vt 0.608887 0.125000
vt 0.625000 0.128308
vt 0.145128 0.690957
vt 0.125000 0.684369
vt 0.137118 0.687500
vt 0.625495 0.065377
vt 0.605696 0.062500
vt 0.624758 0.062500
vt 0.125000 0.692468
vt 0.431431 0.000000
vt 0.625000 0.960628
vt 0.625000 0.789372
vt 0.125000 0.504334
vt 0.625000 0.120579
vt 0.625000 0.065391
vt 0.125000 0.629082
vt 0.625000 0.057321
vt 0.138917 0.750000
vt 0.125000 0.736083
vt 0.620378 -0.004540
vt 0.625000 0.010315
vt 0.625000 0.009278
vt 0.125000 0.513917
vt 0.138917 0.500000
vt 0.375000 0.736083
vt 0.361083 0.750000
vt 0.361083 0.500000
vt 0.375000 0.513917
vt 0.625000 0.006547
vt 0.625000 0.000000
vt 0.625000 0.000000
vt 0.625000 0.000000
vt 0.625000 0.004491
vt 0.625000 0.245509
vt 0.625000 0.250000
vt 0.625000 0.489854
vt 0.625000 0.500000
vt 0.625000 0.749246
vt 0.625000 0.760146
vt 0.625000 0.750000
vt 0.625000 0.000000
vt 0.625000 0.000000
vt 0.402337 0.000000
vt 0.625000 0.000000
vt 0.625000 0.260146
vt 0.625000 0.989854
vt 0.625000 0.486528
vt 0.613502 0.500000
vt 0.362921 0.500000
vt 0.375000 0.512079
vt 0.613538 0.749759
vt 0.625000 0.763472
vt 0.625000 0.761724
vt 0.373534 0.737921
vt 0.362921 0.750000
vt 0.364488 0.750000
vt 0.613538 0.250241
vt 0.625000 0.238276
vt 0.625000 0.236528
vt 0.126466 0.512079
vt 0.137079 0.500000
vt 0.125000 0.510512
vt 0.613502 0.000000
vt 0.625000 0.013472
vt 0.137079 0.750000
vt 0.125000 0.737921
vt 0.125000 0.512079
vt 0.390183 0.000000
vt 0.625000 0.986528
vt 0.625000 0.263472
vt 0.137882 0.625000
vt 0.623097 0.125000
vt 0.130125 0.687500
vt 0.625000 0.065631
vt 0.625000 0.246050
vt 0.125000 0.621984
vt 0.625000 0.000000
vt 0.625000 0.011313
vt 0.616640 0.000000
vn -0.1800 0.9837 0.0000
vn -0.1800 -0.9837 0.0000
vn -0.0946 -0.0000 0.9955
vn -0.4499 -0.8931 -0.0000
vn -0.0127 0.9999 0.0000
vn 1.0000 0.0000 -0.0000
vn -0.3600 0.0011 0.9330
vn -0.0946 0.0000 -0.9955
vn -0.1348 -0.9909 0.0000
vn -0.1348 0.9909 0.0000
vn -0.9919 0.1268 0.0000
vn -0.2217 0.0000 0.9751
vn -0.2217 0.0000 -0.9751
vn 0.4669 -0.6335 -0.6170
vn 0.4669 0.6335 -0.6170
vn 0.4669 -0.6335 0.6170
vn 0.4669 0.6335 0.6170
vn 0.6931 0.0000 -0.7208
vn 0.6403 -0.7681 -0.0000
vn 0.6403 0.7681 0.0000
vn 0.6931 -0.0000 0.7208
vn -0.1575 0.9875 0.0000
vn -0.1575 -0.9875 0.0000
vn -0.1585 0.0000 0.9874
vn -0.1585 0.0000 -0.9874
vn -0.2961 0.0011 -0.9552
vn -0.0739 0.9973 -0.0000
vn -0.2964 -0.9551 0.0000
vn -0.2961 0.0011 0.9552
vn -0.3600 0.0011 -0.9330
vn -0.7785 0.6277 0.0000
vn 0.8915 -0.4530 0.0000
vn 0.0000 -0.0961 0.9954
vn -0.0000 -0.0961 -0.9954
vn -0.0000 0.6277 -0.7785
vn 0.7785 0.6277 -0.0000
vn 0.0000 0.6277 0.7785
vn 0.0000 -0.3677 -0.9299
vn -0.8915 -0.4530 0.0000
vn -0.7821 -0.6231 0.0000
vn 0.0000 1.0000 0.0000
vn 0.5501 -0.8351 0.0000
vn 0.0000 -0.7747 0.6323
vn 0.0000 -0.3677 0.9299
vn 0.3079 -0.9514 0.0000
vn -0.7514 -0.6598 0.0000
vn 0.0000 -0.7747 -0.6323
vn 0.0000 0.2870 -0.9579
vn 0.9946 0.1040 0.0000
vn 0.0000 0.2870 0.9579
vn -0.9946 0.1040 0.0000
vn -0.0000 -0.2342 -0.9722
vn 0.6450 -0.7642 0.0000
vn 0.0000 -0.2342 0.9722
vn -0.8071 -0.5904 0.0000
vn 0.4251 -0.9052 0.0000
vn -0.7242 -0.6896 0.0000
vn 0.0000 -0.5060 -0.8626
vn 0.0000 -0.5060 0.8626
vn 0.0000 -1.0000 0.0000
vn 0.0000 0.1394 -0.9902
vn -0.9902 0.1394 0.0000
vn 0.0000 0.1394 0.9902
vn 0.9902 0.1394 0.0000
vn -0.3657 0.0351 0.9301
vn -0.2905 0.0000 -0.9569
vn -0.2905 0.0000 0.9569
vn -0.3657 0.0351 -0.9301
vn -0.8282 -0.3533 -0.4350
vn -0.6651 0.6046 -0.4382
vn -0.8282 -0.3533 0.4350
vn -0.6651 0.6046 0.4382
vn -0.2182 -0.7031 -0.6768
vn -0.2182 0.7031 -0.6768
vn -0.2182 -0.7031 0.6768
vn -0.2182 0.7031 0.6768
vn -0.4053 -0.6680 -0.6241
vn -0.2687 0.7196 0.6403
vn -0.2687 0.7196 -0.6403
vn -0.4053 -0.6680 0.6241
vn -0.5312 -0.5991 -0.5990
vn -0.8232 0.0959 -0.5596
vn -0.1940 0.7069 -0.6802
vn -0.1940 -0.7069 0.6802
vn -0.2610 0.7214 0.6415
vn -0.8296 0.1061 0.5481
vn -0.8831 -0.4693 0.0000
vn -0.6655 0.7464 0.0000
vn -0.1940 -0.7069 -0.6802
vn -0.2469 0.7070 -0.6627
vn -0.2469 -0.7070 0.6627
vn -0.1940 0.7069 0.6802
vn -0.2469 -0.7070 -0.6627
vn -0.2469 0.7070 0.6627
vn -0.2573 0.7363 -0.6258
vn -0.5314 -0.5827 0.6149
vn -0.6574 0.3682 -0.6574
vn -0.6881 0.2302 -0.6881
vn 0.6574 0.3682 -0.6574
vn 0.6881 0.2302 -0.6881
vn -0.6574 0.3682 0.6574
vn -0.6881 0.2302 0.6881
vn 0.6574 0.3682 0.6574
vn 0.6824 0.2233 0.6960
vn -0.5396 -0.5300 -0.6542
vn 0.5597 -0.5703 -0.6013
vn 0.4166 -0.6075 0.6763
vn -0.5808 -0.5129 0.6322
vn -0.7356 0.3149 -0.5997
vn 0.5530 -0.1829 -0.8129
vn 0.5530 -0.1829 0.8129
vn -0.7356 0.3149 0.5997
vn 0.2657 -0.8522 0.4508
vn -0.4175 -0.7545 0.5064
vn -0.4933 -0.7347 -0.4657
vn 0.1812 -0.8473 -0.4993
vn 0.0000 -0.4315 -0.9021
vn -0.4662 0.7518 -0.4663
vn 0.4663 0.7518 -0.4662
vn 0.9021 -0.4315 0.0000
vn 0.4663 0.7518 0.4662
vn 0.0000 -0.4315 0.9021
vn -0.4662 0.7518 0.4662
vn -0.9021 -0.4315 -0.0000
vn -0.6171 -0.3801 0.6890
vn -0.6171 -0.3801 -0.6890
vn 0.6171 -0.3801 -0.6890
vn 0.6171 -0.3801 0.6890
vn 0.0000 0.6149 -0.7886
vn 0.9198 0.3924 0.0000
vn 0.0000 0.6149 0.7886
vn -0.7555 0.6551 0.0000
vn 0.2290 -0.8911 0.3917
vn -0.4626 -0.6462 0.6069
vn -0.4272 -0.8133 -0.3950
vn 0.1860 -0.8001 -0.5704
vn 0.1866 -0.8008 0.5691
vn -0.4286 -0.8140 0.3920
vn -0.4665 -0.6465 -0.6037
vn 0.3406 -0.8765 -0.3403
vn 0.5239 0.6715 0.5239
vn 0.6304 -0.4529 0.6304
vn -0.5239 0.6715 0.5239
vn -0.6304 -0.4529 0.6304
vn 0.5239 0.6715 -0.5239
vn 0.6304 -0.4529 -0.6304
vn -0.5239 0.6715 -0.5239
vn -0.6304 -0.4529 -0.6304
vn 0.0000 -0.6560 -0.7548
vn 0.7548 -0.6560 0.0000
vn 0.6935 0.1953 0.6935
vn -0.6935 0.1953 -0.6935
vn -0.6935 0.1953 0.6935
vn 0.6935 0.1953 -0.6935
vn -0.6560 0.7548 0.0000
vn 0.0000 0.7548 0.6560
vn -0.7548 -0.6560 0.0000
vn 0.0000 0.7548 -0.6560
vn 0.6560 0.7548 0.0000
vn 0.0000 -0.6560 0.7548
vn -0.2274 -0.7106 -0.6658
vn -0.2274 0.7106 -0.6658
vn -0.2274 -0.7106 0.6658
vn -0.2274 0.7106 0.6658
vn -0.4284 -0.6361 -0.6418
vn -0.2551 0.7055 0.6612
vn -0.2551 0.7055 -0.6612
vn -0.4284 -0.6361 0.6418
vn -0.5314 -0.5827 -0.6149
vn -0.8296 0.1061 -0.5481
vn -0.2573 0.7363 0.6258
vn -0.8232 0.0959 0.5596
vn -0.2610 0.7214 -0.6415
vn -0.5312 -0.5991 0.5990
vn -0.6824 0.2233 -0.6960
vn 0.6824 0.2233 -0.6960
vn -0.6824 0.2233 0.6960
vn 0.6881 0.2302 0.6881
vn -0.5808 -0.5129 -0.6322
vn 0.4166 -0.6075 -0.6763
vn 0.5597 -0.5703 0.6013
vn -0.5396 -0.5300 0.6542
vn 0.1812 -0.8473 0.4993
vn -0.4933 -0.7347 0.4657
vn -0.4175 -0.7545 -0.5064
vn 0.2657 -0.8522 -0.4508
vn -0.4663 0.7518 -0.4662
vn 0.4662 0.7518 0.4662
vn 0.3406 -0.8765 0.3403
vn -0.4665 -0.6465 0.6037
vn -0.4286 -0.8140 -0.3920
vn 0.1866 -0.8008 -0.5691
vn 0.1860 -0.8001 0.5704
vn -0.4272 -0.8133 0.3950
vn -0.4626 -0.6462 -0.6069
vn 0.2290 -0.8911 -0.3917
usemtl Anvil
s off
f 10/1/1 38/2/1 22/3/1
f 19/4/2 26/5/2 9/6/2
f 23/7/3 33/8/3 21/9/3
f 41/10/4 15/11/4 1/12/4
f 52/13/5 16/14/5 48/15/5
f 11/16/6 20/17/6 8/18/6
f 45/19/7 13/20/7 54/21/7
f 25/22/8 12/23/8 7/24/8
f 35/25/9 44/26/9 27/27/9
f 39/28/10 49/29/10 47/30/10
f 17/31/11 2/32/11 14/33/11
f 40/34/12 53/35/12 34/36/12
f 50/37/13 28/38/13 43/39/13
f 7/40/14 8/41/14 9/42/14
f 10/43/15 11/44/15 12/45/15
f 19/4/16 20/46/16 21/47/16
f 22/48/17 23/49/17 24/50/17
f 8/18/18 12/23/18 11/16/18
f 9/6/19 20/46/19 19/4/19
f 10/51/20 24/52/20 11/16/20
f 21/9/21 24/52/21 23/7/21
f 39/28/22 32/53/22 31/54/22
f 27/27/23 36/55/23 35/25/23
f 40/34/24 33/8/24 37/56/24
f 25/22/25 30/57/25 29/58/25
f 50/37/26 42/59/26 51/60/26
f 48/15/27 49/29/27 52/13/27
f 41/10/28 56/61/28 55/62/28
f 54/21/29 46/63/29 45/19/29
f 3/64/30 51/60/30 42/59/30
f 76/65/31 58/66/31 73/67/31
f 68/68/32 96/69/32 81/70/32
f 82/71/33 100/72/33 74/73/33
f 67/74/34 86/75/34 92/76/34
f 63/77/35 65/78/35 59/79/35
f 69/80/36 79/81/36 66/82/36
f 83/83/37 72/84/37 80/85/37
f 89/86/38 122/87/38 125/88/38
f 75/89/39 87/90/39 61/91/39
f 119/92/40 102/93/40 124/94/40
f 105/95/41 111/96/41 108/97/41
f 127/98/42 107/99/42 116/100/42
f 113/101/43 110/102/43 118/103/43
f 94/104/44 117/105/44 97/106/44
f 90/107/45 115/108/45 93/109/45
f 98/110/46 123/111/46 88/112/46
f 126/113/47 101/114/47 104/115/47
f 67/74/48 63/77/48 62/116/48
f 81/70/49 69/80/49 68/68/49
f 82/71/50 77/117/50 83/83/50
f 75/89/51 60/118/51 76/65/51
f 85/119/52 92/76/52 86/75/52
f 93/109/53 91/120/53 90/107/53
f 97/106/54 95/121/54 94/104/54
f 88/112/55 99/122/55 98/110/55
f 116/100/56 128/123/56 127/98/56
f 124/94/57 120/124/57 119/92/57
f 121/125/58 125/88/58 122/87/58
f 118/103/59 114/126/59 113/101/59
f 78/127/60 57/128/60 64/129/60
f 132/130/60 150/131/60 146/132/60
f 147/133/61 144/134/61 152/135/61
f 137/136/62 151/137/62 139/138/62
f 143/139/41 136/140/41 130/141/41
f 131/142/63 138/143/63 134/144/63
f 141/145/64 133/146/64 145/147/64
f 10/1/1 32/53/1 38/2/1
f 19/4/2 36/55/2 26/5/2
f 23/7/3 37/56/3 33/8/3
f 41/10/4 55/62/4 15/11/4
f 52/13/5 6/148/5 16/14/5
f 11/16/6 24/52/6 20/17/6
f 45/19/65 18/149/65 13/20/65
f 25/22/8 29/58/8 12/23/8
f 35/25/9 56/61/9 44/26/9
f 39/28/10 31/54/10 49/29/10
f 17/31/11 5/150/11 2/32/11
f 40/34/12 46/63/12 53/35/12
f 50/37/13 30/57/13 28/38/13
f 8/18/18 7/24/18 12/23/18
f 9/6/19 8/41/19 20/46/19
f 10/51/20 22/151/20 24/52/20
f 21/9/21 20/17/21 24/52/21
f 39/28/22 38/2/22 32/53/22
f 27/27/23 26/5/23 36/55/23
f 40/34/24 34/36/24 33/8/24
f 25/22/25 28/38/25 30/57/25
f 50/37/66 43/39/66 42/59/66
f 48/15/27 47/30/27 49/29/27
f 41/10/28 44/26/28 56/61/28
f 54/21/67 53/35/67 46/63/67
f 3/64/68 4/152/68 51/60/68
f 76/65/31 60/118/31 58/66/31
f 68/68/32 91/120/32 96/69/32
f 82/71/33 95/121/33 100/72/33
f 67/74/34 62/116/34 86/75/34
f 63/77/35 70/153/35 65/78/35
f 69/80/36 84/154/36 79/81/36
f 83/83/37 77/117/37 72/84/37
f 89/86/38 85/119/38 122/87/38
f 75/89/39 99/122/39 87/90/39
f 119/92/40 112/155/40 102/93/40
f 105/95/41 103/156/41 111/96/41
f 127/98/42 106/157/42 107/99/42
f 113/101/43 109/158/43 110/102/43
f 94/104/44 114/126/44 117/105/44
f 90/107/45 128/123/45 115/108/45
f 98/110/46 120/124/46 123/111/46
f 126/113/47 121/125/47 101/114/47
f 67/74/48 70/153/48 63/77/48
f 81/70/49 84/154/49 69/80/49
f 82/71/50 74/73/50 77/117/50
f 75/89/51 61/91/51 60/118/51
f 85/119/52 89/86/52 92/76/52
f 93/109/53 96/69/53 91/120/53
f 97/106/54 100/72/54 95/121/54
f 88/112/55 87/90/55 99/122/55
f 116/100/56 115/108/56 128/123/56
f 124/94/57 123/111/57 120/124/57
f 121/125/58 126/113/58 125/88/58
f 118/103/59 117/105/59 114/126/59
f 78/127/60 71/159/60 57/128/60
f 132/130/60 140/160/60 150/131/60
f 147/133/61 142/161/61 144/134/61
f 137/136/62 148/162/62 151/137/62
f 143/139/41 149/163/41 136/140/41
f 131/142/63 135/164/63 138/143/63
f 141/145/64 129/165/64 133/146/64
usemtl Anvil_Screen
f 1/12/69 2/166/69 3/167/69
f 4/152/70 5/168/70 6/169/70
f 13/170/71 14/171/71 15/172/71
f 16/173/72 17/174/72 18/175/72
f 26/176/73 28/177/73 25/178/73
f 30/179/74 32/180/74 29/58/74
f 34/36/75 36/55/75 33/8/75
f 38/2/76 40/34/76 37/56/76
f 41/181/77 43/182/77 44/183/77
f 45/19/78 47/30/78 48/15/78
f 49/184/79 51/185/79 52/186/79
f 53/35/80 55/62/80 56/61/80
f 1/12/81 42/187/81 41/10/81
f 2/188/82 4/152/82 3/64/82
f 32/180/83 12/23/83 29/58/83
f 36/55/84 21/9/84 33/8/84
f 48/15/85 18/149/85 45/19/85
f 14/33/86 18/149/86 17/31/86
f 15/11/87 2/166/87 1/12/87
f 6/189/88 17/31/88 16/190/88
f 26/5/89 7/191/89 9/6/89
f 31/192/90 50/37/90 49/193/90
f 35/25/91 53/35/91 56/61/91
f 38/2/92 23/7/92 22/3/92
f 27/27/93 43/182/93 28/194/93
f 39/28/94 46/63/94 40/34/94
f 52/195/95 4/152/95 6/169/95
f 15/11/96 54/21/96 13/20/96
f 57/128/97 58/196/97 59/197/97
f 60/198/98 62/199/98 63/200/98
f 64/129/99 65/201/99 66/202/99
f 67/74/100 69/80/100 70/153/100
f 71/159/101 72/203/101 73/204/101
f 74/73/102 76/65/102 77/117/102
f 78/127/103 79/205/103 80/206/103
f 82/71/104 84/154/104 81/70/104
f 85/207/105 87/208/105 88/209/105
f 89/86/106 91/120/106 92/76/106
f 94/104/107 96/69/107 93/109/107
f 97/106/108 99/122/108 100/72/108
f 101/114/109 102/210/109 103/211/109
f 104/115/110 105/212/110 106/213/110
f 107/99/111 108/214/111 109/215/111
f 110/216/112 111/217/112 112/218/112
f 113/101/113 115/108/113 116/100/113
f 118/103/114 120/124/114 117/105/114
f 121/125/115 123/219/115 124/220/115
f 126/113/116 128/123/116 125/88/116
f 64/129/117 59/197/117 65/201/117
f 58/221/118 63/77/118 59/79/118
f 66/82/119 70/153/119 69/80/119
f 64/129/120 79/205/120 78/127/120
f 83/83/121 79/81/121 84/154/121
f 78/127/122 72/84/122 71/159/122
f 76/65/123 72/84/123 77/117/123
f 57/128/124 73/204/124 58/196/124
f 100/72/125 75/89/125 74/73/125
f 86/75/126 61/222/126 87/208/126
f 92/76/127 68/68/127 67/74/127
f 95/121/128 81/70/128 96/69/128
f 103/211/129 104/115/129 101/114/129
f 105/223/130 107/99/130 106/157/130
f 111/96/131 109/158/131 108/97/131
f 103/224/132 112/155/132 111/217/132
f 116/100/133 109/158/133 113/101/133
f 98/110/134 117/105/134 120/124/134
f 102/210/135 121/125/135 124/220/135
f 90/107/136 125/88/136 128/123/136
f 93/109/137 114/126/137 94/104/137
f 112/155/138 118/103/138 110/102/138
f 88/209/139 122/87/139 85/119/139
f 127/98/140 104/115/140 106/157/140
f 129/165/141 130/225/141 131/226/141
f 132/130/142 133/227/142 134/228/142
f 135/229/143 136/230/143 137/231/143
f 138/232/144 139/233/144 140/234/144
f 141/235/145 142/236/145 143/237/145
f 144/238/146 145/239/146 146/240/146
f 147/133/147 148/241/147 149/242/147
f 150/131/148 151/243/148 152/244/148
f 150/131/149 144/245/149 146/132/149
f 146/132/150 133/227/150 132/130/150
f 134/144/151 129/165/151 131/142/151
f 148/241/152 152/135/152 151/246/152
f 139/138/153 135/164/153 137/136/153
f 145/147/154 142/161/154 141/145/154
f 149/247/155 137/136/155 136/230/155
f 130/141/156 135/164/156 131/142/156
f 140/160/157 151/243/157 150/131/157
f 149/242/158 142/161/158 147/133/158
f 130/225/159 141/145/159 143/248/159
f 132/130/160 138/143/160 140/160/160
f 26/176/161 27/249/161 28/177/161
f 30/179/162 31/250/162 32/180/162
f 34/36/163 35/25/163 36/55/163
f 38/2/164 39/28/164 40/34/164
f 41/181/165 42/251/165 43/182/165
f 45/19/166 46/63/166 47/30/166
f 49/184/167 50/252/167 51/185/167
f 53/35/168 54/21/168 55/62/168
f 1/12/169 3/167/169 42/187/169
f 2/188/170 5/168/170 4/152/170
f 32/180/83 10/253/83 12/23/83
f 36/55/84 19/4/84 21/9/84
f 48/15/171 16/14/171 18/149/171
f 14/33/172 13/20/172 18/149/172
f 15/11/87 14/171/87 2/166/87
f 6/189/88 5/150/88 17/31/88
f 26/5/89 25/254/89 7/191/89
f 31/192/90 30/57/90 50/37/90
f 35/25/91 34/36/91 53/35/91
f 38/2/92 37/56/92 23/7/92
f 27/27/93 44/26/93 43/182/93
f 39/28/94 47/30/94 46/63/94
f 52/195/173 51/60/173 4/152/173
f 15/11/174 55/62/174 54/21/174
f 60/198/175 61/222/175 62/199/175
f 67/74/176 68/68/176 69/80/176
f 74/73/177 75/89/177 76/65/177
f 82/71/178 83/83/178 84/154/178
f 85/207/179 86/255/179 87/208/179
f 89/86/180 90/107/180 91/120/180
f 94/104/181 95/121/181 96/69/181
f 97/106/182 98/110/182 99/122/182
f 113/101/183 114/126/183 115/108/183
f 118/103/184 119/92/184 120/124/184
f 121/125/185 122/256/185 123/219/185
f 126/113/186 127/98/186 128/123/186
f 64/129/117 57/128/117 59/197/117
f 58/221/187 60/257/187 63/77/187
f 66/82/119 65/78/119 70/153/119
f 64/129/120 66/202/120 79/205/120
f 83/83/188 80/85/188 79/81/188
f 78/127/122 80/85/122 72/84/122
f 76/65/123 73/67/123 72/84/123
f 57/128/124 71/159/124 73/204/124
f 100/72/125 99/122/125 75/89/125
f 86/75/126 62/116/126 61/222/126
f 92/76/127 91/120/127 68/68/127
f 95/121/128 82/71/128 81/70/128
f 103/211/129 105/212/129 104/115/129
f 105/223/130 108/214/130 107/99/130
f 111/96/131 110/102/131 109/158/131
f 103/224/132 102/93/132 112/155/132
f 116/100/189 107/99/189 109/158/189
f 98/110/190 97/106/190 117/105/190
f 102/210/191 101/114/191 121/125/191
f 90/107/192 89/86/192 125/88/192
f 93/109/193 115/108/193 114/126/193
f 112/155/194 119/92/194 118/103/194
f 88/209/195 123/219/195 122/87/195
f 127/98/196 126/113/196 104/115/196
f 150/131/149 152/244/149 144/245/149
f 146/132/150 145/239/150 133/227/150
f 134/144/151 133/146/151 129/165/151
f 148/241/152 147/133/152 152/135/152
f 139/138/153 138/143/153 135/164/153
f 145/147/154 144/134/154 142/161/154
f 149/247/155 148/162/155 137/136/155
f 130/141/156 136/140/156 135/164/156
f 140/160/157 139/233/157 151/243/157
f 149/242/158 143/237/158 142/161/158
f 130/225/159 129/165/159 141/145/159
f 132/130/160 134/144/160 138/143/160
