# Blender v2.90.0 OBJ File: 'Wall_topSmall.blend'
# www.blender.org
mtllib Wall_topSmall.mtl
o SmallWall_01_Cube.013
v 2.602414 2.003667 0.099999
v 2.602414 0.003667 0.099999
v 0.002414 2.003667 0.100000
v 0.002414 0.003667 0.100000
v 2.602414 2.003667 -0.100001
v 2.602414 0.003667 -0.100001
v 0.002413 2.003667 -0.100000
v 0.002413 0.003667 -0.100000
v 2.607241 -0.003667 -0.162006
v -0.002414 -0.003667 -0.162005
v 2.607241 2.011001 0.162003
v 2.607241 -0.003667 0.162003
v -0.002414 2.011001 -0.162005
v -0.002413 2.011001 0.162005
v -0.002413 -0.003667 0.162005
v 2.607241 2.011001 -0.162006
v 2.408522 0.195768 -0.162006
v 0.196305 0.195768 -0.162005
v 2.408522 1.811565 0.162004
v 2.408522 0.195768 0.162004
v 0.196305 1.811565 -0.162005
v 0.196305 1.811565 0.162005
v 0.196305 0.195768 0.162005
v 2.408522 1.811565 -0.162006
vt 0.875000 0.500000
vt 0.625000 0.750000
vt 0.625000 0.500000
vt 0.375000 1.000000
vt 0.375000 0.750000
vt 0.625000 0.000000
vt 0.375000 0.250000
vt 0.375000 0.000000
vt 0.375000 0.500000
vt 0.125000 0.750000
vt 0.125000 0.500000
vt 0.625000 0.250000
vt 0.875000 0.750000
vt 0.625000 1.000000
vt 0.625000 0.500000
vt 0.875000 0.750000
vt 0.625000 0.750000
vt 0.375000 1.000000
vt 0.375000 0.750000
vt 0.375000 0.500000
vt 0.125000 0.750000
vt 0.125000 0.500000
vt 0.625000 0.250000
vt 0.375000 0.250000
vt 0.625000 0.750000
vt 0.875000 0.500000
vt 0.625000 0.500000
vt 0.375000 1.000000
vt 0.375000 0.750000
vt 0.125000 0.500000
vt 0.375000 0.500000
vt 0.625000 0.250000
vt 0.375000 0.250000
vt 0.625000 1.000000
vt 0.875000 0.500000
vt 0.875000 0.750000
vt 0.625000 1.000000
vt 0.125000 0.750000
vn 0.0000 1.0000 0.0000
vn -1.0000 0.0000 0.0000
vn -0.0000 0.0000 -1.0000
vn 0.0000 -1.0000 0.0000
vn 0.0000 0.0000 1.0000
vn 1.0000 0.0000 0.0000
usemtl Plaster_SmallWall01
s off
f 5/1/1 3/2/1 1/3/1
f 3/2/2 8/4/2 4/5/2
f 7/6/3 6/7/3 8/8/3
f 2/9/4 8/10/4 6/11/4
f 1/3/5 4/5/5 2/9/5
f 5/12/6 2/9/6 6/7/6
f 5/1/1 7/13/1 3/2/1
f 3/2/2 7/14/2 8/4/2
f 7/6/3 5/12/3 6/7/3
f 2/9/4 4/5/4 8/10/4
f 1/3/5 3/2/5 4/5/5
f 5/12/6 1/3/6 2/9/6
usemtl Wood_SmallWall01
f 11/15/1 13/16/1 14/17/1
f 14/17/2 10/18/2 15/19/2
f 12/20/4 10/21/4 9/22/4
f 16/23/6 12/20/6 9/24/6
f 22/25/4 24/26/4 19/27/4
f 18/28/6 22/25/6 23/29/6
f 17/30/1 23/29/1 20/31/1
f 20/31/2 24/32/2 17/33/2
f 10/21/3 17/30/3 9/22/3
f 11/15/5 20/31/5 12/20/5
f 13/34/3 18/28/3 10/18/3
f 15/19/5 22/25/5 14/17/5
f 9/24/3 24/32/3 16/23/3
f 14/17/5 19/27/5 11/15/5
f 16/35/3 21/36/3 13/16/3
f 12/20/5 23/29/5 15/19/5
f 11/15/1 16/35/1 13/16/1
f 14/17/2 13/34/2 10/18/2
f 12/20/4 15/19/4 10/21/4
f 16/23/6 11/15/6 12/20/6
f 22/25/4 21/36/4 24/26/4
f 18/28/6 21/37/6 22/25/6
f 17/30/1 18/38/1 23/29/1
f 20/31/2 19/27/2 24/32/2
f 10/21/3 18/38/3 17/30/3
f 11/15/5 19/27/5 20/31/5
f 13/34/3 21/37/3 18/28/3
f 15/19/5 23/29/5 22/25/5
f 9/24/3 17/33/3 24/32/3
f 14/17/5 22/25/5 19/27/5
f 16/35/3 24/26/3 21/36/3
f 12/20/5 20/31/5 23/29/5
